<?xml version="1.0" encoding="UTF-8"?>
<svg id="_レイヤー_1" data-name="レイヤー 1" xmlns="http://www.w3.org/2000/svg" viewBox="0 0 217.67 75.53">
  <defs>
    <style>
      .cls-1 {
        fill: #888988;
      }

      .cls-2 {
        fill: #87bea9;
      }
    </style>
  </defs>
  <path class="cls-2" d="M164.29,29.71s2.75,6.91-5.36,14.65c0,0-6.18-5.65,5.36-14.65Z"/>
  <path class="cls-2" d="M144.95,55.64s7.42-.52,12.33,9.56c0,0-7.26,4.17-12.33-9.56Z"/>
  <path class="cls-2" d="M164.44,50.47c3.5,7.48,10.16,8.35,16.8,4.19,0,0-.13.63-.13.63-3.84-4.98-10.76-6.45-16.66-4.83h0ZM164.4,50.45c5.94-2.02,13.37-.53,17.09,4.64-6.85,4.25-13.86,3.3-17.09-4.64h0Z"/>
  <path class="cls-2" d="M179.37,43.3s8.99-3.46,15.88,1.26c0,0-11.27,7.39-15.88-1.26Z"/>
  <path class="cls-2" d="M189.76,38.12c5.42-2.14,11.92-1.98,16.72,1.57-5.01,3.33-13.83,5.41-16.72-1.57h0ZM189.81,38.14c3.26,6.53,10.93,4.27,15.81,1.58-4.56-3.21-10.66-3.19-15.81-1.58h0Z"/>
  <path class="cls-2" d="M174.28,42.1c-4.05-4.03-3.02-9.92.3-14.05,0,0,.31-.45.31-.45l.37.42c3.92,4.56,4.5,10.53-.98,14.08h0ZM174.28,42.05c5.21-3.99,4.22-9.19.68-13.69-3.26,3.98-4.3,9.58-.68,13.69h0Z"/>
  <path class="cls-1" d="M87.46,57.48c30.68,4.25,62.44-.49,90.49-13.64,4.02-1.84,7.95-3.87,11.83-6.01-30.2,18.66-67.34,25.98-102.32,19.65h0Z"/>
  <path class="cls-1" d="M146.65,55.64c4.32-3.98,9.06-7.49,12.73-12.12-2.51,5.42-7.63,9.28-12.73,12.12h0Z"/>
  <path class="cls-1" d="M169.9,47.68c2.14-2.33,4.51-4.69,5.05-7.93.18,3.34-2.47,6.17-5.05,7.93h0Z"/>
  <path class="cls-1" d="M12.73,9.73v23.8l22.82-23.8h2.03l-22.75,23.73,24.78,24.01h-2.17l-24.71-23.94v23.94h-1.54V9.73h1.54Z"/>
  <path class="cls-1" d="M68.1,38.02v19.46h-1.4v-18.97c0-6.72-2.87-11.76-9.66-11.76-5.11,0-9.03,3.01-11.83,7.77v22.96h-1.4v-31.43h1.4v6.3c2.59-4.13,7.28-6.93,11.83-6.93,7.91,0,11.06,5.46,11.06,12.6Z"/>
  <path class="cls-2" d="M106.25,41.8c0,9.31-6.44,16.31-15.47,16.31s-15.47-7-15.47-16.03c0-9.73,6.37-16.66,15.47-16.66s15.47,7.21,15.47,16.38ZM76.78,41.8c0,8.68,5.88,15.05,14,15.05s14-6.51,14-15.05-5.46-15.12-14.07-15.12c-7.77,0-13.93,6.16-13.93,15.12Z"/>
  <path class="cls-1" d="M108.63,26.05h7.56v-7.91l1.4-1.05v8.96h9.1v1.26h-9.1v21.7c0,5.53.91,7.77,4.9,7.77,1.47,0,3.29-.49,5.25-1.4v1.4c-1.75.91-3.57,1.33-5.25,1.33-4.97,0-6.3-2.66-6.3-9.1v-21.7h-7.56v-1.26Z"/>
  <path class="cls-1" d="M70.67,48.07c15.51,5.42,32.88,8.42,48.56,2.13,16-5.5,33.46-2.96,49.33,1.66-4.05-.97-8.11-1.86-12.22-2.5-12.18-1.99-25.04-2.38-36.8,1.79-1.97.64-3.94,1.34-5.98,1.88-14.31,3.71-29.44.39-42.9-4.96h0Z"/>
</svg>